<!DOCTYPE svg PUBLIC "-//W3C//DTD SVG 20010904//EN" "http://www.w3.org/TR/2001/REC-SVG-20010904/DTD/svg10.dtd">
<svg version="1.0" xmlns="http://www.w3.org/2000/svg" width="452px" height="258px" viewBox="0 0 4520 2580" preserveAspectRatio="xMidYMid meet">
<g id="layer101" fill="#000000" stroke="none">
 <path d="M187 2563 c-69 -21 -150 -103 -171 -173 -19 -63 -21 -180 -4 -247 11 -46 63 -99 1047 -1084 985 -984 1038 -1036 1084 -1047 61 -15 173 -15 234 0 46 11 99 63 1084 1047 984 985 1036 1038 1047 1084 17 67 15 184 -4 247 -22 74 -101 152 -178 174 -69 20 -177 20 -247 0 -53 -15 -78 -40 -936 -897 l-883 -882 -882 882 c-859 857 -884 882 -937 897 -67 20 -189 19 -254 -1z"/>
 </g>

</svg>