<!DOCTYPE svg PUBLIC "-//W3C//DTD SVG 20010904//EN" "http://www.w3.org/TR/2001/REC-SVG-20010904/DTD/svg10.dtd">
<svg version="1.0" xmlns="http://www.w3.org/2000/svg" width="355px" height="355px" viewBox="0 0 3550 3550" preserveAspectRatio="xMidYMid meet">
<g id="layer101" fill="#ffffff" stroke="none">
 <path d="M1089 2461 c-16 -16 -29 -40 -29 -52 0 -17 83 -106 305 -329 l305 -305 -305 -305 c-223 -223 -305 -312 -305 -329 0 -29 52 -81 81 -81 17 0 106 82 329 305 l305 305 305 -305 c223 -222 312 -305 329 -305 29 0 81 52 81 81 0 17 -83 106 -305 329 l-305 305 305 305 c223 223 305 312 305 329 0 29 -52 81 -81 81 -17 0 -106 -82 -329 -305 l-305 -305 -305 305 c-223 222 -312 305 -329 305 -12 0 -36 -13 -52 -29z"/>
 </g>
<g id="layer102" fill="#ee0000" stroke="none">
 <path d="M1513 3535 c-463 -48 -938 -346 -1218 -765 -206 -308 -295 -609 -295 -995 0 -153 26 -379 55 -480 175 -605 635 -1065 1240 -1240 101 -29 327 -55 480 -55 153 0 379 26 480 55 605 175 1065 635 1240 1240 29 101 55 327 55 480 0 153 -26 379 -55 480 -175 605 -635 1065 -1240 1240 -173 50 -483 67 -742 40z m-43 -1370 l305 -305 305 305 c217 216 312 305 328 305 12 0 31 -9 42 -20 11 -11 20 -30 20 -42 0 -16 -89 -111 -305 -328 l-305 -305 305 -305 c216 -217 305 -312 305 -328 0 -28 -34 -62 -62 -62 -16 0 -111 89 -328 305 l-305 305 -305 -305 c-217 -216 -312 -305 -328 -305 -28 0 -62 34 -62 62 0 16 89 111 305 328 l305 305 -305 305 c-216 217 -305 312 -305 328 0 12 9 31 20 42 11 11 30 20 42 20 16 0 111 -89 328 -305z"/>
 </g>

</svg>